<svg width="130" height="34" viewBox="0 0 130 34" fill="none" xmlns="http://www.w3.org/2000/svg">
<path d="M35.1875 29V16.1504H37.2969V27.207H42.7549V29H35.1875ZM46.583 19.2705V29H44.5176V19.2705H46.583ZM45.5635 15.5439C45.8799 15.5439 46.1523 15.6289 46.3809 15.7988C46.6152 15.9688 46.7324 16.2617 46.7324 16.6777C46.7324 17.0879 46.6152 17.3809 46.3809 17.5566C46.1523 17.7266 45.8799 17.8115 45.5635 17.8115C45.2354 17.8115 44.957 17.7266 44.7285 17.5566C44.5059 17.3809 44.3945 17.0879 44.3945 16.6777C44.3945 16.2617 44.5059 15.9688 44.7285 15.7988C44.957 15.6289 45.2354 15.5439 45.5635 15.5439ZM52.0723 33.3242C50.7539 33.3242 49.7432 33.0869 49.04 32.6123C48.3369 32.1377 47.9854 31.4727 47.9854 30.6172C47.9854 30.0195 48.1729 29.5127 48.5479 29.0967C48.9229 28.6865 49.459 28.4023 50.1562 28.2441C49.8926 28.127 49.6641 27.9453 49.4707 27.6992C49.2832 27.4473 49.1895 27.1689 49.1895 26.8643C49.1895 26.501 49.292 26.1904 49.4971 25.9326C49.7021 25.6748 50.0098 25.4258 50.4199 25.1855C49.9102 24.9688 49.5 24.6172 49.1895 24.1309C48.8848 23.6387 48.7324 23.0615 48.7324 22.3994C48.7324 21.6963 48.8818 21.0986 49.1807 20.6064C49.4795 20.1084 49.916 19.7305 50.4902 19.4727C51.0645 19.209 51.7588 19.0771 52.5732 19.0771C52.749 19.0771 52.9395 19.0889 53.1445 19.1123C53.3555 19.1299 53.5488 19.1533 53.7246 19.1826C53.9062 19.2061 54.0439 19.2324 54.1377 19.2617H57.5039V20.4131L55.8516 20.7207C56.0098 20.9434 56.1357 21.1982 56.2295 21.4854C56.3232 21.7666 56.3701 22.0742 56.3701 22.4082C56.3701 23.416 56.0215 24.21 55.3242 24.79C54.6328 25.3643 53.6777 25.6514 52.459 25.6514C52.166 25.6396 51.8818 25.6162 51.6064 25.5811C51.3955 25.71 51.2344 25.8535 51.123 26.0117C51.0117 26.1641 50.9561 26.3369 50.9561 26.5303C50.9561 26.6885 51.0117 26.8174 51.123 26.917C51.2344 27.0107 51.3984 27.0811 51.6152 27.1279C51.8379 27.1748 52.1074 27.1982 52.4238 27.1982H54.1025C55.1689 27.1982 55.9834 27.4238 56.5459 27.875C57.1084 28.3262 57.3896 28.9883 57.3896 29.8613C57.3896 30.9688 56.9326 31.8213 56.0186 32.4189C55.1045 33.0225 53.7891 33.3242 52.0723 33.3242ZM52.1514 31.874C52.8721 31.874 53.4785 31.8037 53.9707 31.6631C54.4629 31.5225 54.835 31.3203 55.0869 31.0566C55.3389 30.7988 55.4648 30.4912 55.4648 30.1338C55.4648 29.8174 55.3857 29.5742 55.2275 29.4043C55.0693 29.2344 54.832 29.1172 54.5156 29.0527C54.1992 28.9883 53.8066 28.9561 53.3379 28.9561H51.8086C51.4277 28.9561 51.0908 29.0146 50.7979 29.1318C50.5049 29.2549 50.2764 29.4307 50.1123 29.6592C49.9541 29.8877 49.875 30.1631 49.875 30.4854C49.875 30.9307 50.0713 31.2734 50.4639 31.5137C50.8623 31.7539 51.4248 31.874 52.1514 31.874ZM52.5557 24.2979C53.1592 24.2979 53.6074 24.1338 53.9004 23.8057C54.1934 23.4717 54.3398 23.0029 54.3398 22.3994C54.3398 21.7432 54.1875 21.251 53.8828 20.9229C53.584 20.5947 53.1387 20.4307 52.5469 20.4307C51.9668 20.4307 51.5244 20.5977 51.2197 20.9316C50.9209 21.2656 50.7715 21.7607 50.7715 22.417C50.7715 23.0088 50.9209 23.4717 51.2197 23.8057C51.5244 24.1338 51.9697 24.2979 52.5557 24.2979ZM61.0947 15.3242V18.7607C61.0947 19.1182 61.083 19.4668 61.0596 19.8066C61.042 20.1465 61.0215 20.4102 60.998 20.5977H61.1123C61.3174 20.2578 61.5693 19.9795 61.8682 19.7627C62.167 19.54 62.501 19.373 62.8701 19.2617C63.2451 19.1504 63.6436 19.0947 64.0654 19.0947C64.8096 19.0947 65.4424 19.2207 65.9639 19.4727C66.4854 19.7188 66.8838 20.1025 67.1592 20.624C67.4404 21.1455 67.5811 21.8223 67.5811 22.6543V29H65.5156V23.041C65.5156 22.2852 65.3604 21.7197 65.0498 21.3447C64.7393 20.9639 64.2588 20.7734 63.6084 20.7734C62.9814 20.7734 62.4834 20.9053 62.1143 21.1689C61.751 21.4268 61.4902 21.8105 61.332 22.3203C61.1738 22.8242 61.0947 23.4395 61.0947 24.166V29H59.0293V15.3242H61.0947ZM73.8438 27.5059C74.1133 27.5059 74.3799 27.4824 74.6436 27.4355C74.9072 27.3828 75.1475 27.3213 75.3643 27.251V28.8154C75.1357 28.915 74.8398 29 74.4766 29.0703C74.1133 29.1406 73.7354 29.1758 73.3428 29.1758C72.792 29.1758 72.2969 29.085 71.8574 28.9033C71.418 28.7158 71.0693 28.3965 70.8115 27.9453C70.5537 27.4941 70.4248 26.8701 70.4248 26.0732V20.8438H69.0977V19.9209L70.5215 19.1914L71.1982 17.1084H72.499V19.2705H75.2852V20.8438H72.499V26.0469C72.499 26.5391 72.6221 26.9053 72.8682 27.1455C73.1143 27.3857 73.4395 27.5059 73.8438 27.5059ZM79.1572 15.3242V18.7607C79.1572 19.1182 79.1455 19.4668 79.1221 19.8066C79.1045 20.1465 79.084 20.4102 79.0605 20.5977H79.1748C79.3799 20.2578 79.6318 19.9795 79.9307 19.7627C80.2295 19.54 80.5635 19.373 80.9326 19.2617C81.3076 19.1504 81.7061 19.0947 82.1279 19.0947C82.8721 19.0947 83.5049 19.2207 84.0264 19.4727C84.5479 19.7188 84.9463 20.1025 85.2217 20.624C85.5029 21.1455 85.6436 21.8223 85.6436 22.6543V29H83.5781V23.041C83.5781 22.2852 83.4229 21.7197 83.1123 21.3447C82.8018 20.9639 82.3213 20.7734 81.6709 20.7734C81.0439 20.7734 80.5459 20.9053 80.1768 21.1689C79.8135 21.4268 79.5527 21.8105 79.3945 22.3203C79.2363 22.8242 79.1572 23.4395 79.1572 24.166V29H77.0918V15.3242H79.1572ZM96.8984 24.1133C96.8984 24.9219 96.793 25.6396 96.582 26.2666C96.3711 26.8936 96.0635 27.4238 95.6592 27.8574C95.2549 28.2852 94.7686 28.6133 94.2002 28.8418C93.6318 29.0645 92.9902 29.1758 92.2754 29.1758C91.6074 29.1758 90.9951 29.0645 90.4385 28.8418C89.8818 28.6133 89.3984 28.2852 88.9883 27.8574C88.584 27.4238 88.2705 26.8936 88.0479 26.2666C87.8252 25.6396 87.7139 24.9219 87.7139 24.1133C87.7139 23.041 87.8984 22.1328 88.2676 21.3887C88.6426 20.6387 89.1758 20.0674 89.8672 19.6748C90.5586 19.2822 91.3818 19.0859 92.3369 19.0859C93.2334 19.0859 94.0244 19.2822 94.71 19.6748C95.3955 20.0674 95.9316 20.6387 96.3184 21.3887C96.7051 22.1387 96.8984 23.0469 96.8984 24.1133ZM89.8408 24.1133C89.8408 24.8223 89.9258 25.4287 90.0957 25.9326C90.2715 26.4365 90.541 26.8232 90.9043 27.0928C91.2676 27.3564 91.7363 27.4883 92.3105 27.4883C92.8848 27.4883 93.3535 27.3564 93.7168 27.0928C94.0801 26.8232 94.3467 26.4365 94.5166 25.9326C94.6865 25.4287 94.7715 24.8223 94.7715 24.1133C94.7715 23.4043 94.6865 22.8037 94.5166 22.3115C94.3467 21.8135 94.0801 21.4355 93.7168 21.1777C93.3535 20.9141 92.8818 20.7822 92.3018 20.7822C91.4463 20.7822 90.8223 21.0693 90.4297 21.6436C90.0371 22.2178 89.8408 23.041 89.8408 24.1133ZM107.503 19.2705V29H105.877L105.596 27.6904H105.481C105.276 28.0244 105.016 28.3027 104.699 28.5254C104.383 28.7422 104.031 28.9033 103.645 29.0088C103.258 29.1201 102.851 29.1758 102.423 29.1758C101.69 29.1758 101.063 29.0527 100.542 28.8066C100.026 28.5547 99.6309 28.168 99.3555 27.6465C99.0801 27.125 98.9424 26.4512 98.9424 25.625V19.2705H101.017V25.2383C101.017 25.9941 101.169 26.5596 101.474 26.9346C101.784 27.3096 102.265 27.4971 102.915 27.4971C103.542 27.4971 104.04 27.3682 104.409 27.1104C104.778 26.8525 105.039 26.4717 105.191 25.9678C105.35 25.4639 105.429 24.8457 105.429 24.1133V19.2705H107.503ZM116.754 26.2227C116.754 26.8613 116.599 27.4004 116.288 27.8398C115.978 28.2793 115.523 28.6133 114.926 28.8418C114.334 29.0645 113.607 29.1758 112.746 29.1758C112.066 29.1758 111.48 29.126 110.988 29.0264C110.502 28.9326 110.042 28.7861 109.608 28.5869V26.8027C110.071 27.0195 110.59 27.207 111.164 27.3652C111.744 27.5234 112.292 27.6025 112.808 27.6025C113.487 27.6025 113.977 27.4971 114.275 27.2861C114.574 27.0693 114.724 26.7822 114.724 26.4248C114.724 26.2139 114.662 26.0264 114.539 25.8623C114.422 25.6924 114.199 25.5195 113.871 25.3438C113.549 25.1621 113.074 24.9453 112.447 24.6934C111.832 24.4473 111.313 24.2012 110.892 23.9551C110.47 23.709 110.15 23.4131 109.934 23.0674C109.717 22.7158 109.608 22.2676 109.608 21.7227C109.608 20.8613 109.948 20.208 110.628 19.7627C111.313 19.3115 112.219 19.0859 113.344 19.0859C113.941 19.0859 114.504 19.1475 115.031 19.2705C115.564 19.3877 116.086 19.5605 116.596 19.7891L115.945 21.3447C115.506 21.1514 115.063 20.9932 114.618 20.8701C114.179 20.7412 113.73 20.6768 113.273 20.6768C112.74 20.6768 112.333 20.7588 112.052 20.9229C111.776 21.0869 111.639 21.3213 111.639 21.626C111.639 21.8545 111.706 22.0479 111.841 22.2061C111.976 22.3643 112.207 22.5225 112.535 22.6807C112.869 22.8389 113.332 23.0352 113.924 23.2695C114.504 23.4922 115.005 23.7266 115.427 23.9727C115.854 24.2129 116.183 24.5088 116.411 24.8604C116.64 25.2119 116.754 25.666 116.754 26.2227ZM122.612 19.0859C123.479 19.0859 124.224 19.2646 124.845 19.6221C125.466 19.9795 125.943 20.4863 126.277 21.1426C126.611 21.7988 126.778 22.584 126.778 23.498V24.6055H120.283C120.307 25.5488 120.559 26.2754 121.039 26.7852C121.525 27.2949 122.205 27.5498 123.078 27.5498C123.699 27.5498 124.256 27.4912 124.748 27.374C125.246 27.251 125.759 27.0723 126.286 26.8379V28.5166C125.8 28.7451 125.305 28.9121 124.801 29.0176C124.297 29.123 123.693 29.1758 122.99 29.1758C122.035 29.1758 121.194 28.9912 120.468 28.6221C119.747 28.2471 119.182 27.6904 118.771 26.9521C118.367 26.2139 118.165 25.2969 118.165 24.2012C118.165 23.1113 118.35 22.1855 118.719 21.4238C119.088 20.6621 119.606 20.082 120.274 19.6836C120.942 19.2852 121.722 19.0859 122.612 19.0859ZM122.612 20.6416C121.962 20.6416 121.435 20.8525 121.03 21.2744C120.632 21.6963 120.397 22.3145 120.327 23.1289H124.757C124.751 22.6426 124.669 22.2119 124.511 21.8369C124.358 21.4619 124.124 21.1689 123.808 20.958C123.497 20.7471 123.099 20.6416 122.612 20.6416Z" fill="black"/>
<path d="M25.4784 26.845C23.0216 25.4354 20.689 24.7411 18.459 24.8305L17.1145 15.0318H18.9827V13.1437H16.9741V9.04647H18.9827V7.15823H16.9741V6.46406C17.0397 5.1905 16.6589 3.93303 15.8942 2.89804C15.4088 2.29871 14.7357 1.8702 13.9773 1.67778V0H12.0389V1.67251C11.1782 1.88431 10.4145 2.36967 9.86883 3.05174C9.32313 3.73382 9.02653 4.5736 9.02594 5.43834V7.15823H7.01188V9.04647H9.02594V13.1279H7.01188V15.0162H8.88555L6.96871 28.9908C5.21925 28.9908 3.53455 28.3176 1.81209 26.9238L0.5 28.4386V28.4648C2.58423 30.1532 4.70628 31 6.8931 31C9.07993 31 11.2937 30.169 13.6209 28.5175C16.9957 26.2296 20.4406 26.2454 24.4687 28.5543L25.5 26.845H25.4784ZM10.932 5.45413C10.932 4.92636 11.1469 4.4202 11.5295 4.04652C11.9121 3.67284 12.4312 3.46212 12.973 3.46072C14.2527 3.46072 15.0195 4.59166 15.0195 6.47985V7.17403H10.932V5.45413ZM15.0195 9.06227V13.1437H10.932V9.04647L15.0195 9.06227ZM12.4169 26.8975C11.3673 27.6824 10.1901 28.2905 8.93412 28.6964L10.8078 15.0214H15.1274L16.5043 25.0619C15.0342 25.4144 13.6468 26.0375 12.4169 26.8975Z" fill="#FF78D1"/>
</svg>
